<?xml version="1.0" standalone="no"?>
<!DOCTYPE svg PUBLIC "-//W3C//DTD SVG 20010904//EN"
 "http://www.w3.org/TR/2001/REC-SVG-20010904/DTD/svg10.dtd">
<svg version="1.0" xmlns="http://www.w3.org/2000/svg"
 width="225.000000pt" height="225.000000pt" viewBox="0 0 225.000000 225.000000"
 preserveAspectRatio="xMidYMid meet">

<g transform="translate(0.000000,225.000000) scale(0.100000,-0.100000)"
fill="#000000" stroke="none">
<path d="M1020 2240 c-465 -40 -852 -371 -978 -838 -23 -88 -26 -114 -26 -277
0 -164 3 -189 27 -280 37 -137 128 -318 215 -425 210 -261 522 -410 858 -410
307 0 578 112 791 326 140 141 242 320 294 519 21 79 24 112 24 275 0 171 -2
193 -28 284 -32 115 -86 234 -152 338 -56 87 -205 238 -292 297 -218 146 -475
213 -733 191z m268 -111 c89 -12 119 -29 50 -29 -24 0 -79 -9 -123 -19 -481
-116 -782 -648 -670 -1181 84 -396 380 -689 753 -744 93 -13 91 -18 -18 -36
-196 -31 -434 6 -610 95 -157 79 -325 235 -414 383 -168 281 -192 623 -65 927
64 154 206 332 344 430 143 102 330 171 495 183 107 8 139 7 258 -9z m337
-163 c117 -40 181 -82 255 -168 119 -138 196 -294 232 -468 16 -78 19 -121 15
-240 -6 -167 -26 -257 -87 -387 -137 -293 -325 -434 -600 -450 -360 -21 -695
251 -791 643 -28 113 -31 329 -6 441 72 318 295 563 587 645 100 28 288 20
395 -16z"/>
<path d="M1377 1798 c143 -124 242 -305 273 -502 14 -87 14 -254 0 -339 -31
-198 -130 -385 -262 -495 -47 -39 -49 -43 -22 -37 73 16 153 66 216 134 272
294 258 890 -27 1160 -52 50 -127 91 -188 105 -28 7 -28 6 10 -26z"/>
</g>
</svg>
